<svg version="1.1" id="Layer_1" xmlns="http://www.w3.org/2000/svg" xmlns:xlink="http://www.w3.org/1999/xlink" x="0px" y="0px"
	 width="100%" viewBox="0 0 848 832" enable-background="new 0 0 848 832" xml:space="preserve">
<path fill="#000000" opacity="1.000000" stroke="none" 
	d="
M401.449463,58.631233 
	C424.762085,60.801643 447.631866,62.894585 470.488434,65.123039 
	C492.512939,67.270378 514.522034,69.574921 536.541138,71.778030 
	C553.762878,73.501137 570.990784,75.162209 588.213440,76.876755 
	C594.752136,77.527695 598.853394,82.137962 602.971313,86.438171 
	C645.348022,130.690842 687.654358,175.010818 729.982605,219.309891 
	C730.992249,220.366470 732.399109,221.180359 732.060364,223.626862 
	C727.498413,225.008392 722.831604,222.995682 718.181702,223.022156 
	C714.872131,223.041016 711.418701,222.917770 708.277710,222.004410 
	C702.392822,220.293228 699.848511,223.240189 697.638367,227.988968 
	C692.300476,239.457703 686.410217,250.685104 681.135376,262.158997 
	C677.142700,270.843903 675.212952,280.476227 672.352234,289.682983 
	C671.422119,292.676727 671.103027,296.302826 666.208313,294.165222 
	C659.489807,291.231110 658.378357,289.771851 660.980591,285.046539 
	C671.256470,266.386780 681.683838,247.810471 692.042786,229.196396 
	C693.316162,226.908279 695.028809,224.796844 695.239075,221.817123 
	C691.510559,219.429489 687.197327,219.819916 683.189026,219.412079 
	C642.965149,215.319260 602.724426,211.391876 562.486877,207.433731 
	C555.531555,206.749542 548.577576,206.015381 541.607178,205.531723 
	C535.274414,205.092361 530.262512,202.418274 525.887512,197.872147 
	C509.147308,180.477005 492.195160,163.285660 475.469940,145.876251 
	C453.206177,122.701752 431.068451,99.406059 408.904236,76.136093 
	C403.783173,70.759552 398.774139,65.276276 393.744476,59.875351 
	C396.166077,56.570171 398.735870,58.887684 401.449463,58.631233 
z"/>
<path fill="#000000" opacity="1.000000" stroke="none" 
	d="
M418.265686,210.843674 
	C413.598785,209.890472 409.339661,209.206146 404.980133,209.155121 
	C401.415283,209.113419 400.059113,207.807709 402.128082,204.175064 
	C416.299988,179.292175 430.415283,154.376755 444.445496,129.413773 
	C446.351593,126.022392 447.802887,126.165802 450.342896,128.811050 
	C473.869598,153.312744 497.853180,177.389221 520.889893,202.340881 
	C529.426514,211.587128 539.949036,211.521805 550.498962,212.622116 
	C577.304626,215.417786 604.149048,217.841751 630.979797,220.395493 
	C634.956482,220.774002 638.942017,221.061783 642.925232,221.368637 
	C646.558167,221.648468 647.551636,223.243332 645.962463,226.668884 
	C636.645813,246.752625 627.482056,266.907593 618.093567,286.957489 
	C615.525452,292.442108 613.764465,298.360260 610.397278,303.367645 
	C607.552063,302.831238 606.353760,300.888458 604.867065,299.401123 
	C591.167908,285.695953 575.145142,275.891022 556.416504,270.756012 
	C538.773621,265.918701 521.174561,266.347992 503.861298,272.282745 
	C499.505402,273.775879 497.898285,272.838745 496.314301,268.468475 
	C487.655762,244.578583 470.236053,229.175766 447.326111,219.456696 
	C438.118713,215.550674 428.651581,212.364136 418.265686,210.843674 
z"/>
<path fill="#000000" opacity="1.000000" stroke="none" 
	d="
M326.618713,297.301971 
	C314.048859,273.613708 308.482574,249.092270 313.671753,222.692154 
	C315.328247,214.264542 317.839874,206.197922 321.945190,198.441025 
	C323.977814,199.927460 323.382080,201.362167 323.277069,202.594040 
	C320.917969,230.275436 330.296875,254.189117 346.236145,276.251587 
	C361.877502,297.901733 379.780396,317.656219 396.939270,338.035858 
	C411.888885,355.791473 426.026855,374.137115 436.427795,394.972961 
	C451.890137,425.948059 457.802704,458.139038 447.432526,492.150757 
	C440.506836,514.865295 426.752472,532.931213 409.534882,548.704895 
	C400.670288,556.826050 390.809692,563.666992 381.081818,570.674133 
	C380.441620,571.135254 379.663727,571.405151 378.774414,571.852173 
	C377.452454,569.447144 379.240997,568.290833 380.221710,566.970581 
	C394.434418,547.836487 404.765076,526.991455 408.346039,503.179077 
	C410.443085,489.234070 409.996796,475.324890 408.065063,461.373077 
	C402.714996,422.733215 384.822388,389.474823 363.856079,357.514374 
	C350.974274,337.877686 337.992432,318.305969 326.618713,297.301971 
z"/>
<path fill="#000000" opacity="1.000000" stroke="none" 
	d="
M195.688385,362.590881 
	C201.868652,360.541931 202.119888,360.774200 202.119049,367.643066 
	C202.111328,430.123749 202.110840,492.604462 202.111191,555.085144 
	C202.111206,556.417786 202.247208,557.758118 202.145859,559.081543 
	C201.836044,563.127014 203.810944,564.294922 207.596924,564.008789 
	C222.867416,562.854675 238.126968,561.514832 253.476410,561.841187 
	C289.908508,562.615723 324.888519,569.555664 357.555420,586.259949 
	C362.171417,588.620361 366.981201,590.882874 370.813232,594.659912 
	C369.039948,596.788208 367.608246,595.551025 366.368927,595.116333 
	C329.091980,582.039978 290.670593,576.913025 251.339005,579.415222 
	C228.043365,580.897217 205.097824,584.959412 182.853378,592.364014 
	C181.747772,592.731995 180.638672,593.091797 179.521225,593.421692 
	C173.426880,595.221008 173.018311,594.920349 173.017822,588.478271 
	C173.012985,525.330811 173.012772,462.183319 173.015366,399.035828 
	C173.015671,391.538208 173.113297,384.039703 173.022095,376.543365 
	C172.979706,373.061584 174.434692,371.001434 177.702133,369.777771 
	C183.625732,367.559296 189.455856,365.091248 195.688385,362.590881 
z"/>
<path fill="#000000" opacity="1.000000" stroke="none" 
	d="
M249.645538,549.384766 
	C240.845154,549.300476 232.514679,549.126221 224.187073,549.216370 
	C220.279648,549.258606 218.978958,547.655334 218.984085,543.816284 
	C219.079178,472.679657 219.107437,401.542877 219.034210,330.406250 
	C219.030243,326.553802 220.537552,324.610657 223.998016,323.455292 
	C230.155746,321.399261 236.246368,319.141754 242.360428,316.955597 
	C247.417938,315.147247 248.164124,315.658661 248.162827,321.075287 
	C248.153320,360.558624 248.131210,400.041992 248.124008,439.525330 
	C248.118851,467.846802 248.220078,496.168823 248.045410,524.489197 
	C248.016815,529.124939 249.334030,530.608276 254.126144,531.078979 
	C298.253571,535.413757 337.562347,551.522400 371.533356,580.199097 
	C379.456451,586.887390 386.126160,594.779297 392.241272,603.133179 
	C392.898987,604.031677 393.814545,604.933777 393.178772,606.339905 
	C391.630188,607.244385 390.731232,605.913940 389.838074,605.123108 
	C368.237823,585.997803 343.720703,571.814880 316.492188,562.458618 
	C297.243835,555.844421 277.526886,551.110962 257.072998,550.088074 
	C254.748596,549.971863 252.435135,549.636780 249.645538,549.384766 
z"/>
<path fill="#000000" opacity="1.000000" stroke="none" 
	d="
M441.871979,563.838806 
	C470.944733,544.917725 502.630768,534.528259 536.634644,531.222351 
	C542.224854,530.678772 542.953308,528.431091 542.945435,523.747559 
	C542.833069,456.942871 542.854492,390.137909 542.844238,323.333038 
	C542.844055,322.000275 542.893616,320.666077 542.847351,319.335052 
	C542.719849,315.665985 544.426392,315.054199 547.573364,316.252441 
	C554.103699,318.738892 560.636536,321.235504 567.261292,323.449860 
	C570.598083,324.565125 572.063477,326.378143 572.059387,329.969879 
	C571.978394,401.105896 571.949219,472.242096 572.013062,543.378113 
	C572.016907,547.707275 570.475342,549.280029 566.158508,549.194824 
	C545.979980,548.796692 525.866150,549.701477 506.055573,553.878052 
	C474.084503,560.618408 444.321045,572.595337 417.762360,591.925476 
	C412.783936,595.548889 407.994843,599.431580 403.062592,603.119934 
	C401.828522,604.042725 400.907928,605.786682 397.879639,604.913208 
	C409.445099,587.634644 424.654358,574.949402 441.871979,563.838806 
z"/>
<path fill="#000000" opacity="1.000000" stroke="none" 
	d="
M568.478516,582.508667 
	C547.929321,578.927124 527.632324,578.392151 507.306183,579.269897 
	C479.888672,580.453796 453.086609,585.184875 427.116058,594.260254 
	C425.468048,594.836121 423.907776,596.126038 421.741425,595.308167 
	C421.635956,592.947876 423.718689,592.405762 425.081360,591.578552 
	C449.671204,576.651367 476.479340,568.344360 504.895386,564.634521 
	C520.450195,562.603760 536.036255,561.461670 551.696777,561.995117 
	C561.834351,562.340515 571.962769,563.199219 582.070068,564.107605 
	C588.869263,564.718628 588.880859,564.937256 588.879761,558.312622 
	C588.870789,501.510193 588.846924,444.707733 588.835388,387.905304 
	C588.833862,380.409576 588.936951,372.913361 588.874634,365.418335 
	C588.841980,361.487488 590.292969,360.233795 594.070679,361.833069 
	C600.352478,364.492401 606.653076,367.118042 613.024597,369.551178 
	C616.870728,371.019897 617.457764,373.803955 617.451172,377.471222 
	C617.366150,424.445831 617.360596,471.420654 617.392578,518.395386 
	C617.408691,542.046936 617.553040,565.698425 617.596680,589.349976 
	C617.599670,590.969116 617.756042,592.694519 616.087708,594.919861 
	C600.914795,589.505310 585.125183,585.160278 568.478516,582.508667 
z"/>
<path fill="#000000" opacity="1.000000" stroke="none" 
	d="
M382.515808,290.175598 
	C377.360413,253.216797 411.565155,224.808228 445.482819,237.527740 
	C466.631622,245.458755 476.963837,265.024384 475.844391,284.524811 
	C474.470917,308.449585 459.390839,325.104462 437.486816,329.346252 
	C417.357117,333.244446 388.550995,322.608551 382.515808,290.175598 
z"/>
<path fill="#000000" opacity="1.000000" stroke="none" 
	d="
M359.332886,454.642090 
	C351.721222,435.103394 339.184784,418.999939 327.499969,402.407471 
	C316.090820,386.206360 304.071686,370.444122 295.615417,352.339600 
	C276.362366,311.119659 275.043121,269.914459 295.040863,228.531738 
	C299.631226,219.032623 305.205994,210.185059 311.645416,201.858841 
	C312.491516,200.764847 312.976227,199.025253 315.600037,199.798096 
	C313.706665,204.193802 311.888611,208.531662 309.979523,212.829086 
	C288.646942,260.849426 294.071075,306.552643 322.086365,350.173065 
	C335.040680,370.343262 350.312622,388.964508 362.276703,409.803986 
	C369.556335,422.483948 375.607880,435.626373 375.084076,450.721741 
	C374.764709,459.924713 373.275116,468.941589 369.118835,477.319000 
	C368.742126,478.078400 368.215271,478.710205 366.556580,478.906128 
	C364.004181,471.105957 362.700317,462.737946 359.332886,454.642090 
z"/>
<path fill="#000000" opacity="1.000000" stroke="none" 
	d="
M529.985229,712.388184 
	C532.036011,717.540588 531.431702,718.694519 526.480164,718.811890 
	C519.155762,718.985474 511.825195,718.900208 504.497253,718.918640 
	C502.578674,718.923462 500.709290,718.695740 500.156097,716.438843 
	C499.654572,714.392334 500.536987,712.856567 502.369476,711.897217 
	C505.299896,710.363098 505.918396,707.742493 505.915527,704.740479 
	C505.898407,686.919739 505.897247,669.098999 505.924377,651.278259 
	C505.928772,648.400024 505.269379,646.051941 502.285461,644.843384 
	C500.307556,644.042236 499.653015,642.350098 500.113007,640.332520 
	C500.578461,638.290833 502.279602,637.964233 504.008575,637.956360 
	C511.835938,637.920959 519.663635,637.916748 527.491028,637.942749 
	C529.227722,637.948486 530.914673,638.256287 531.203003,640.430847 
	C531.431580,642.155090 531.342712,643.862976 529.370361,644.596680 
	C525.720581,645.954529 525.143433,648.812683 525.245300,652.248901 
	C525.388245,657.074707 525.387085,661.910706 525.247742,666.736572 
	C525.162964,669.672180 526.333313,670.845093 529.258057,671.144897 
	C535.927551,671.828735 542.553406,670.691711 549.203613,670.972229 
	C551.734680,671.079041 552.726685,669.631897 552.707581,667.199951 
	C552.663025,661.537842 552.671753,655.874939 552.704895,650.212646 
	C552.718994,647.805847 551.687378,646.021362 549.632141,644.886536 
	C547.704163,643.821899 546.339417,642.450500 547.012756,640.111450 
	C547.763123,637.504822 550.102966,637.971375 552.015808,637.952698 
	C559.010254,637.884460 566.006042,637.881042 573.000610,637.937988 
	C574.923340,637.953613 577.228760,637.544312 578.002014,640.129822 
	C578.707153,642.487610 577.459412,643.801392 575.393066,644.796509 
	C572.844604,646.023804 572.140320,648.328064 572.146729,651.041199 
	C572.189209,669.028320 572.189209,687.015625 572.173645,705.002869 
	C572.170898,708.227478 572.973328,710.953186 576.182068,712.386963 
	C578.057007,713.224854 578.393982,714.726440 578.023438,716.524475 
	C577.610474,718.528442 575.995972,718.425110 574.486328,718.454773 
	C566.831177,718.605225 559.176086,718.772217 551.520264,718.880676 
	C549.706116,718.906372 547.688782,719.050720 546.959106,716.766968 
	C546.232422,714.492920 547.279297,712.994995 549.211731,711.810974 
	C551.700562,710.286011 552.687561,707.904053 552.687073,705.032898 
	C552.685974,698.537476 552.617310,692.039551 552.779968,685.547791 
	C552.861633,682.290100 551.544678,681.094482 548.353149,681.166199 
	C542.193848,681.304688 536.027527,681.304688 529.867798,681.181213 
	C526.387573,681.111450 525.151367,682.655762 525.227661,686.010254 
	C525.371582,692.336121 525.307129,698.667175 525.294922,704.995972 
	C525.288574,708.293823 526.475403,710.823853 529.985229,712.388184 
z"/>
<path fill="#000000" opacity="1.000000" stroke="none" 
	d="
M415.470642,697.818359 
	C410.773315,699.738586 406.238312,699.244812 401.754211,699.256165 
	C400.089203,699.260376 398.416656,699.112854 396.760864,699.227051 
	C394.751068,699.365723 393.044281,700.363831 392.948822,702.480103 
	C392.844086,704.801697 394.793396,705.556702 396.709869,705.613647 
	C401.871429,705.767151 407.038605,705.728516 412.203491,705.775818 
	C414.369507,705.795654 416.543762,705.728455 418.699677,705.892639 
	C427.424164,706.557007 433.384552,711.144104 434.911163,718.268860 
	C436.569397,726.008057 432.718475,735.232178 425.512604,738.634949 
	C410.863525,745.552551 395.745483,745.313477 380.969818,739.266357 
	C372.883118,735.956665 371.613342,725.833313 378.015472,719.761902 
	C380.151947,717.735718 380.933136,716.386536 379.278473,713.515991 
	C376.473907,708.650696 377.719879,703.851257 380.985565,699.536194 
	C382.080566,698.089417 383.359589,696.781799 384.691650,695.253174 
	C384.236938,694.467285 383.936737,693.695496 383.426941,693.104370 
	C372.103516,679.975403 377.860748,662.834900 394.934784,658.932312 
	C398.855133,658.036194 402.911377,657.301758 406.832397,658.112854 
	C414.615753,659.722961 422.416168,658.867554 430.206696,658.863770 
	C433.680389,658.862061 435.926788,659.421509 436.089233,663.637939 
	C436.244965,667.681824 434.785950,669.129211 430.863586,668.515869 
	C429.972198,668.376587 428.986755,668.839111 428.051971,669.023132 
	C431.660889,684.733582 427.943512,693.326782 415.470642,697.818359 
M406.339996,720.322693 
	C403.181366,720.353516 400.013855,720.546509 396.866364,720.373901 
	C392.948334,720.158997 390.984131,722.114014 390.316864,725.688171 
	C389.655609,729.230286 390.823456,732.112671 394.282990,733.362000 
	C400.581177,735.636475 407.030090,735.770020 413.259186,733.155396 
	C416.458527,731.812439 419.040283,729.382690 418.467255,725.505249 
	C417.935059,721.904297 414.681641,721.186523 411.723358,720.571594 
	C410.278320,720.271240 408.745483,720.393188 406.339996,720.322693 
M407.786255,667.666138 
	C402.720917,665.623779 399.084534,666.647400 397.238861,671.306824 
	C395.001617,676.954712 395.304688,682.760437 398.593536,687.970459 
	C401.326080,692.299316 407.519012,691.755310 410.093262,687.228333 
	C413.195251,681.773315 412.437378,673.288086 407.786255,667.666138 
z"/>
<path fill="#000000" opacity="1.000000" stroke="none" 
	d="
M667.127991,633.280762 
	C671.453674,632.768921 672.383545,634.846313 672.326599,638.313416 
	C672.187683,646.766724 672.281372,655.223816 672.281372,664.355957 
	C677.178711,662.291931 680.745422,659.262268 685.419006,658.412231 
	C694.946350,656.679382 704.344910,660.687012 708.370972,669.436157 
	C714.039917,681.755066 713.990356,694.432007 708.245667,706.638977 
	C702.816040,718.176636 688.609985,722.731323 673.925537,718.295349 
	C670.295288,717.198669 667.336121,715.994690 663.249573,718.501221 
	C658.035828,721.698975 654.541443,718.644775 654.570129,712.404053 
	C654.666626,691.412415 654.648621,670.420044 654.607910,649.428162 
	C654.600952,645.824951 653.928284,642.420227 650.119934,640.655273 
	C648.633972,639.966492 647.799744,638.756836 648.032043,637.043518 
	C648.329346,634.850464 650.118225,634.627991 651.771057,634.482117 
	C656.740662,634.043396 661.719727,633.710938 667.127991,633.280762 
M678.956970,670.410522 
	C675.674011,671.795532 672.977051,674.146240 672.701904,677.643127 
	C672.050537,685.921448 671.509705,694.289856 673.068420,702.515076 
	C673.926147,707.041565 676.530518,710.517578 681.728882,710.780701 
	C686.219238,711.008057 690.383179,707.745361 691.702515,702.539185 
	C693.904419,693.850952 694.264954,685.105774 691.270020,676.472107 
	C689.287537,670.757141 685.800354,668.897888 678.956970,670.410522 
z"/>
<path fill="#000000" opacity="1.000000" stroke="none" 
	d="
M640.305847,696.939209 
	C640.327209,699.760376 640.320557,702.093384 640.373230,704.425049 
	C640.440979,707.421692 641.292664,710.006775 644.231689,711.441284 
	C646.479736,712.538513 647.472290,714.342957 646.782288,716.761292 
	C646.138428,719.017822 644.100159,718.955627 642.263977,719.003235 
	C638.267029,719.106995 634.249023,718.938354 630.276184,719.292175 
	C625.721313,719.697876 622.256165,719.120605 622.772095,712.728027 
	C617.717407,715.748535 613.547363,718.970764 607.996704,719.526306 
	C596.352783,720.691528 589.013794,715.212524 587.501953,703.652832 
	C586.264526,694.191467 587.164124,684.681519 586.925232,675.196716 
	C586.826599,671.283081 586.898621,667.527710 582.782776,665.236084 
	C581.152954,664.328674 581.141479,662.389038 581.642456,660.730530 
	C582.101868,659.209595 583.530029,658.978943 584.905090,658.966309 
	C590.402710,658.916077 595.901611,658.955872 601.398010,658.852600 
	C605.055420,658.783997 605.274963,661.162842 605.272156,663.861023 
	C605.261414,674.357544 605.272217,684.854065 605.284485,695.350586 
	C605.287231,697.682434 605.343140,699.989990 606.098877,702.260559 
	C606.998779,704.963928 608.359192,707.122070 611.387268,707.622314 
	C614.580444,708.149841 617.373657,707.335632 619.411987,704.712952 
	C621.390930,702.166504 622.710022,699.371033 622.667114,696.004578 
	C622.580017,689.174561 622.728577,682.340149 622.558899,675.513000 
	C622.463989,671.693726 622.299988,667.750671 618.198120,665.564148 
	C616.611938,664.718689 616.628113,663.109009 616.860535,661.589172 
	C617.137634,659.777893 618.522583,659.127502 620.115723,659.089111 
	C625.777405,658.952698 631.442322,658.820740 637.104309,658.872009 
	C640.562195,658.903259 640.285156,661.623657 640.289185,663.961121 
	C640.308105,674.790894 640.301575,685.620667 640.305847,696.939209 
z"/>
<path fill="#000000" opacity="1.000000" stroke="none" 
	d="
M121.180695,705.681030 
	C112.110184,689.343018 112.215820,672.805359 119.231003,656.379089 
	C123.484657,646.419006 132.045074,640.707764 142.370560,638.115295 
	C152.410034,635.594604 162.526535,636.362183 172.539429,638.811523 
	C175.922699,639.639099 177.679977,641.428772 177.366562,645.157593 
	C177.116287,648.135315 177.350098,651.151978 177.321472,654.150879 
	C177.301086,656.286682 177.696533,658.759399 174.503479,659.017151 
	C171.841507,659.231934 169.048294,659.617126 167.633942,656.434143 
	C167.431030,655.977539 167.177582,655.538330 167.021576,655.066650 
	C165.211731,649.594482 161.602951,646.444946 155.701080,646.122742 
	C149.275787,645.771973 143.902527,647.581848 140.180084,653.196106 
	C131.990784,665.547302 132.206223,691.532593 140.676254,703.852356 
	C143.994019,708.678162 148.941666,710.788391 154.467865,710.497620 
	C160.337204,710.188660 164.837463,707.198486 166.846924,701.216614 
	C167.412125,699.534119 167.825317,697.647705 169.690399,696.700195 
	C173.972443,694.524658 177.393127,696.694214 177.348953,701.581238 
	C177.329376,703.747253 177.319931,705.913330 177.306793,708.079407 
	C177.256134,716.431030 177.273132,716.509583 168.863113,718.314514 
	C160.158920,720.182678 151.353882,720.499390 142.581848,718.961121 
	C133.872482,717.433777 126.691658,713.184631 121.180695,705.681030 
z"/>
<path fill="#000000" opacity="1.000000" stroke="none" 
	d="
M310.361298,192.450745 
	C305.430023,193.186600 301.246918,195.694565 295.144501,195.205078 
	C298.384644,189.450012 300.729553,183.938751 304.270874,179.351074 
	C308.291748,174.142197 307.573944,169.960007 304.129791,165.039993 
	C301.056610,160.649841 297.753143,156.278015 295.898193,150.816071 
	C299.919159,149.199371 303.257904,150.832352 306.520477,151.399780 
	C321.016327,153.920944 320.975159,154.000809 330.667145,142.758469 
	C332.912048,140.154449 334.555054,136.934830 337.805634,135.277664 
	C340.413818,136.219727 339.865417,138.491714 340.105530,140.350983 
	C340.743561,145.291168 341.448395,150.229706 341.847443,155.191360 
	C342.115875,158.529373 343.944885,160.073303 346.829010,161.252991 
	C352.930847,163.748825 359.252808,165.808334 364.764862,169.108627 
	C364.854675,171.569733 363.236725,171.890991 361.922150,172.535034 
	C356.696075,175.095367 351.500885,177.719910 346.248688,180.225098 
	C343.621460,181.478241 342.203522,183.210815 341.998199,186.317535 
	C341.604065,192.280731 340.772369,198.214859 340.130310,204.161926 
	C339.988831,205.472549 340.085419,206.867676 338.540375,207.811478 
	C335.196747,206.792389 333.927094,203.369476 331.536224,201.196777 
	C330.310242,200.082703 329.069763,198.888229 328.191193,197.504486 
	C323.850555,190.667847 318.040009,189.105865 310.361298,192.450745 
z"/>
<path fill="#000000" opacity="1.000000" stroke="none" 
	d="
M189.728882,668.858215 
	C200.404037,654.636230 225.166245,655.222717 235.334793,665.148499 
	C241.359070,671.028992 243.532227,678.339478 243.909317,686.287048 
	C244.586029,700.549744 239.343124,714.188293 224.719025,718.135010 
	C202.708450,724.075195 182.273407,714.443176 184.257843,686.050598 
	C184.682220,679.978821 185.961731,674.226807 189.728882,668.858215 
M220.656311,670.877319 
	C215.141449,665.223816 208.675934,665.670227 205.966797,672.545959 
	C201.674713,683.439209 201.884781,694.614624 206.465637,705.477539 
	C207.912323,708.908142 210.784241,711.033447 214.737076,710.738342 
	C218.650024,710.446167 221.083511,708.026001 222.262253,704.422607 
	C225.895081,693.317383 226.203781,682.303772 220.656311,670.877319 
z"/>
<path fill="#000000" opacity="1.000000" stroke="none" 
	d="
M316.636383,677.928955 
	C322.283661,657.504761 346.373932,653.817078 360.077545,661.926575 
	C366.801147,665.905518 372.445801,679.224365 371.083069,686.890320 
	C370.503296,690.151855 368.219482,690.114075 365.841370,690.120605 
	C357.178436,690.144409 348.515289,690.115417 339.852478,690.159241 
	C334.259277,690.187500 333.332397,691.400574 334.671509,696.697449 
	C337.639069,708.435913 350.788818,712.136047 360.332214,703.589417 
	C363.317993,700.915588 364.996307,700.871521 367.601959,703.708008 
	C370.621490,706.994995 368.689270,708.933105 366.331665,711.167419 
	C357.065826,719.948486 345.975067,721.388062 334.242249,718.512390 
	C320.729767,715.200684 314.158844,702.084839 315.127411,686.172974 
	C315.287811,683.538574 316.060455,680.941406 316.636383,677.928955 
M342.102295,681.430786 
	C344.577515,681.336609 347.058746,681.317444 349.525543,681.118713 
	C350.901642,681.007812 352.019073,680.408508 352.338379,678.792603 
	C353.083527,675.021484 349.289612,668.291443 345.627472,667.021545 
	C341.959808,665.749878 338.170380,667.984375 335.973328,672.714417 
	C332.751160,679.651367 333.683533,681.159302 342.102295,681.430786 
z"/>
<path fill="#000000" opacity="1.000000" stroke="none" 
	d="
M486.313721,663.615234 
	C492.671600,670.131531 494.371552,677.937317 494.624329,686.314636 
	C494.727417,689.729797 492.610809,690.067444 490.088348,690.079224 
	C481.099548,690.121155 472.110443,690.124878 463.121826,690.190247 
	C457.450043,690.231506 456.952271,690.900391 458.331482,696.252808 
	C461.421082,708.242859 474.205627,712.170532 483.620056,703.797546 
	C486.561920,701.181152 488.618286,700.555115 491.465851,703.727356 
	C494.695740,707.325439 492.306213,709.200562 489.777954,711.438232 
	C479.137421,720.855591 467.120361,721.688171 454.380005,716.972168 
	C447.398376,714.387756 442.937347,709.096436 440.750824,702.007385 
	C437.234161,690.605713 438.012115,679.432373 444.485626,669.380188 
	C452.584534,656.804321 472.642426,654.179199 486.313721,663.615234 
M464.067169,667.535461 
	C459.309448,670.773743 458.448029,675.636902 457.965820,680.977173 
	C462.618805,681.194397 466.742462,681.476318 470.869385,681.537720 
	C472.645142,681.564148 475.019379,681.630371 475.483887,679.470093 
	C476.244324,675.933411 475.322723,672.475830 473.018921,669.652161 
	C470.895599,667.049622 468.245300,665.449585 464.067169,667.535461 
z"/>
<path fill="#000000" opacity="1.000000" stroke="none" 
	d="
M271.493256,634.874756 
	C271.781494,654.236389 271.899963,673.201843 272.016174,692.167297 
	C272.040649,696.161865 272.079620,700.156433 272.069641,704.150940 
	C272.061371,707.468018 272.590088,710.437073 276.008179,712.100708 
	C277.887939,713.015686 278.526337,714.719910 278.017242,716.726746 
	C277.493378,718.791931 275.734741,718.952820 274.040375,718.956360 
	C267.050201,718.970947 260.059021,718.987366 253.070358,718.872620 
	C251.330841,718.844055 249.178360,719.055786 248.510239,716.724670 
	C247.944992,714.752502 248.710892,713.216492 250.382858,711.990479 
	C253.033005,710.047302 253.787521,707.271851 253.782104,704.087036 
	C253.750900,685.777832 253.769638,667.468445 253.816620,649.159241 
	C253.825760,645.597229 253.023087,642.567749 249.541687,640.829529 
	C247.885178,640.002441 247.002457,638.695190 247.448196,636.771729 
	C247.872528,634.940674 249.387131,634.613098 250.909592,634.495850 
	C257.034851,634.024048 263.162323,633.567871 269.296143,633.239319 
	C269.947662,633.204468 270.646027,634.044434 271.493256,634.874756 
z"/>
<path fill="#000000" opacity="1.000000" stroke="none" 
	d="
M286.686218,685.000000 
	C286.694946,673.005432 286.690125,661.510864 286.722137,650.016357 
	C286.732849,646.175903 286.143005,642.668701 282.267456,640.707764 
	C280.665161,639.897095 280.459076,638.460754 280.562958,636.884033 
	C280.695801,634.867065 282.268036,634.507629 283.749268,634.391418 
	C289.717743,633.923340 295.691895,633.480652 301.672363,633.232483 
	C304.538300,633.113586 304.509583,635.266785 304.502563,637.431580 
	C304.433990,658.575623 304.434326,679.719910 304.392151,700.864075 
	C304.382599,705.645874 304.548126,710.259216 309.667267,712.827759 
	C311.205658,713.599609 311.315369,715.237793 310.898651,716.795410 
	C310.489960,718.323059 309.258759,718.876465 307.847534,718.885559 
	C300.019623,718.935669 292.191193,718.957886 284.363312,718.917358 
	C282.771820,718.909119 281.381409,718.241882 281.018005,716.482788 
	C280.690216,714.896118 281.109833,713.374573 282.495300,712.505798 
	C286.298157,710.121399 286.763153,706.519348 286.670319,702.490845 
	C286.539856,696.830322 286.668945,691.163879 286.686218,685.000000 
z"/>
</svg>